<svg id="svg" version="1.1" xmlns="http://www.w3.org/2000/svg" xmlns:xlink="http://www.w3.org/1999/xlink" width="400" height="400" viewBox="0, 0, 400,400">
  <g id="svgg">
    <path id="path0" d="M 199.978,182.512 m -120,0 a 120,120 0 1,0 240,0 a 120,120 0 1,0 -240,0" stroke="none" fill="#6ec6e0" fill-rule="evenodd"></path>
    <path id="path1" d="M 202.19 92.476 C 202.086 92.581 202 94.905 202 97.641 L 202 102.615 L 201.165 103.451 C 200.469 104.146 200.096 104.286 198.929 104.286 C 196.459 104.286 195.785 102.893 195.735 97.683 C 195.692 93.134 195.012 91.661 193.528 92.894 C 192.945 93.377 193.193 101.103 193.863 103.359 C 195.111 107.561 201.499 108.116 203.733 104.215 C 204.479 102.912 204.666 94.101 203.974 92.808 C 203.702 92.301 202.576 92.091 202.19 92.476 M 208.621 92.655 C 208.452 92.858 208.091 95.87 207.819 99.348 C 207.294 106.043 207.349 106.571 208.571 106.571 C 209.475 106.571 209.659 105.912 210.022 101.357 C 210.22 98.882 210.469 96.857 210.577 96.857 C 210.684 96.857 211.442 98.304 212.261 100.071 C 214.693 105.321 215.871 107.143 216.835 107.143 C 218.094 107.143 218.181 106.83 218.789 100.143 C 219.396 93.475 219.341 92.857 218.143 92.857 C 217.126 92.857 216.94 93.45 216.547 97.939 C 216.351 100.172 216.114 102 216.02 102 C 215.926 102 214.928 100.104 213.802 97.786 C 211.219 92.465 209.879 91.138 208.621 92.655 M 186.884 93.665 C 186.692 94.023 186.781 95.391 187.167 98.02 C 187.476 100.128 187.694 102.006 187.651 102.195 C 187.607 102.383 186.221 100.915 184.571 98.932 C 181.114 94.778 180.366 94.132 179.319 94.395 C 178.03 94.718 178.007 95.2 178.991 101.429 C 180.103 108.475 180.13 108.571 180.984 108.571 C 182.33 108.571 182.411 108.046 181.748 103.64 C 181.411 101.402 181.137 99.339 181.139 99.054 C 181.141 98.75 182.387 100.045 184.163 102.197 C 188.542 107.503 189.497 108.207 190.392 106.786 C 190.803 106.131 189.375 94.437 188.769 93.5 C 188.422 92.964 187.202 93.07 186.884 93.665 M 225.716 95.009 C 223.715 95.912 222.37 97.876 221.75 100.8 C 220.69 105.794 222.368 108.395 226.693 108.458 C 228.326 108.483 228.732 108.579 228.807 108.958 C 228.92 109.536 230.213 109.901 230.638 109.476 C 231.119 108.996 232.282 102.241 231.981 101.679 C 231.753 101.253 229.078 100.571 227.63 100.571 C 225.967 100.571 226.591 102.712 228.358 103.07 C 230.385 103.481 229.798 105.458 227.524 105.885 C 225.087 106.342 223.908 105.215 224.056 102.571 C 224.301 98.231 226.893 96.199 230.245 97.721 C 231.831 98.44 232.472 98.434 232.867 97.695 C 233.914 95.739 228.556 93.726 225.716 95.009 M 237.184 97.236 C 236.717 97.799 233.68 108.889 233.775 109.685 C 233.902 110.744 234.726 111.12 235.397 110.425 C 236.164 109.629 239.447 98.033 239.097 97.357 C 238.791 96.768 237.633 96.695 237.184 97.236 M 162.178 99.013 C 158.081 100.41 157.143 100.908 157.143 101.686 C 157.143 102.789 157.848 102.961 159.858 102.347 C 162.103 101.662 161.669 101.088 163.834 107.618 C 165.483 112.592 165.814 113.13 166.878 112.56 C 167.681 112.131 167.592 111.587 165.857 106.311 C 163.948 100.505 163.936 101.058 165.991 100.289 C 167.768 99.625 168.342 98.9 167.703 98.129 C 167.174 97.491 166.168 97.652 162.178 99.013 M 243.508 98.915 C 243.201 99.296 239.143 110.645 239.143 111.122 C 239.143 111.739 240.171 112.295 243.133 113.282 C 246.543 114.419 247.107 114.453 247.442 113.546 C 247.791 112.598 247.381 112.278 244.534 111.277 C 242.76 110.653 241.888 110.207 241.95 109.953 C 242.001 109.743 242.827 107.339 243.785 104.611 C 245.104 100.858 245.457 99.537 245.235 99.183 C 244.86 98.584 243.895 98.434 243.508 98.915 M 150.335 103.699 C 145.663 105.776 145.081 106.141 145.197 106.917 C 145.367 108.06 146.097 108.175 147.992 107.357 L 149.743 106.602 C 151.213 109.828 152.253 112.139 153.003 113.819 C 154.503 117.179 154.58 117.274 155.588 117.021 C 156.68 116.747 156.487 115.886 154.134 110.532 C 152.95 107.84 152.018 105.606 152.063 105.568 C 152.107 105.53 152.882 105.152 153.786 104.729 C 155.506 103.922 156.117 102.611 154.977 102.173 C 154.309 101.917 154.44 101.874 150.335 103.699 M 137.855 109.961 C 133.461 111.958 133.126 117.719 137.168 121.766 C 139.739 124.339 143.092 124.307 145.655 121.686 C 150.469 116.763 144.066 107.14 137.855 109.961 M 142.02 112.648 C 144.232 114.139 145.426 117.574 144.335 119.309 C 142.621 122.035 139.302 121.366 137.601 117.952 C 135.665 114.067 138.707 110.416 142.02 112.648 M 193.803 122.865 C 173.337 125.019 160.442 137.98 156.429 160.429 C 155.706 164.471 155.112 172.147 154.625 183.714 C 154.25 192.653 153.978 192.924 142 196.29 C 115.784 203.658 107.187 218.733 119.367 235.975 C 127.025 246.816 137.253 251.736 158 254.558 C 160.279 254.868 164.843 255.522 168.143 256.012 C 171.443 256.502 175.814 257.143 177.857 257.436 C 181.222 257.919 186.582 258.694 194.857 259.893 C 209.848 262.066 222.486 259.773 232.429 253.076 C 236.924 250.049 248.28 241.542 254.252 236.73 C 259.589 232.428 266.42 225.564 268.714 222.197 C 272.694 216.356 274.633 212.949 275.993 209.406 C 276.32 208.554 276.705 207.6 276.849 207.286 C 281.089 198.014 281.574 176.45 277.842 163.135 C 271.084 139.022 253.867 127.079 221 123.705 C 211.443 122.724 198.842 122.335 193.803 122.865 M 215.286 135.25 C 217.643 135.485 221.179 135.825 223.143 136.005 C 254.348 138.863 268.57 153.902 268.571 184.041 C 268.572 198.557 265.503 207.93 257.394 218.177 C 255.093 221.084 251.328 224.439 243.986 230.124 C 240.144 233.099 236.229 236.134 235.286 236.868 C 230.702 240.434 223.498 245.525 221.779 246.413 C 215.737 249.535 207.198 250.684 198.286 249.573 C 192.697 248.876 184.338 247.738 183.652 247.58 C 183.294 247.497 181.521 247.239 179.714 247.006 C 177.907 246.773 173.407 246.129 169.714 245.574 C 166.021 245.02 161.65 244.37 160 244.128 C 148.025 242.379 142.778 241.042 138.473 238.644 C 137.554 238.133 136.742 237.714 136.668 237.714 C 136.433 237.714 134.267 236.041 132.045 234.143 C 127.458 230.226 124.578 223.625 125.679 219.555 C 127.002 214.664 134.532 209.9 146 206.699 C 153.559 204.588 154.776 204.213 156.734 203.389 C 160.413 201.841 163.329 198.978 164.844 195.429 C 165.907 192.936 165.983 192.314 166.279 183.677 C 166.847 167.139 168.374 156.823 171.009 151.714 C 171.212 151.321 171.533 150.583 171.722 150.074 C 173.148 146.245 180.038 139.253 184.003 137.612 C 184.708 137.32 185.617 136.908 186.023 136.696 C 186.639 136.374 190.747 135.296 193.429 134.752 C 194.855 134.462 211.109 134.833 215.286 135.25 M 192.143 146.554 C 188.774 147.378 185.718 150.618 184.729 154.417 C 184.073 156.937 184.058 216.72 184.713 219.234 C 186.122 224.642 189.458 227.286 194.876 227.286 C 198.35 227.286 199.028 227.016 204.41 223.497 C 205.992 222.463 209.343 220.268 211.857 218.62 C 238.857 200.936 241.879 198.944 244 197.546 C 250.591 193.202 251.857 191.433 251.857 186.571 C 251.857 180.794 250.84 179.721 237.286 171.194 C 204.816 150.441 202.648 149.051 200.757 147.882 C 198.53 146.504 194.737 145.92 192.143 146.554 M 210.605 179.758 C 212.154 180.222 212.751 180.948 212.399 181.937 C 212.1 182.78 211.653 182.634 208.857 182.431 C 207.681 182.345 207.388 182.399 206.244 183.127 C 204.706 184.106 203.571 183.953 203.242 182.64 C 202.694 180.458 207.136 178.719 210.605 179.758 M 231.286 180.29 C 232.579 180.933 232.723 181.101 232.803 182.072 C 232.939 183.712 231.86 184.026 229.753 182.96 C 229.82 182.948 228.754 182.119 228.199 182.223 C 227.686 182.127 226.624 182.633 226.479 182.776 C 223.235 183.913 221.843 181.233 224.95 179.831 C 226.363 179.193 229.542 179.423 231.286 180.29 M 211.418 184.709 C 214.83 186.473 213.642 191.714 209.83 191.714 C 207.248 191.714 205.756 189.887 205.958 186.972 C 206.095 185.005 209.367 183.648 211.418 184.709 M 229.224 184.901 C 230.738 185.711 231.327 188.567 230.301 190.124 C 228.263 193.215 223.433 191.587 223.43 187.808 C 223.427 185.124 226.634 183.515 229.224 184.901" stroke="none" fill="#f8fbfb" fill-rule="evenodd"></path>
  </g>
</svg>