<svg id="svg" version="1.1" xmlns="http://www.w3.org/2000/svg" xmlns:xlink="http://www.w3.org/1999/xlink" width="400" height="400" viewBox="0, 0, 400,400">
  <g id="svgg">
    <path id="path0" d="M 193.803 122.865 C 173.337 125.019 160.442 137.98 156.429 160.429 C 155.706 164.471 155.112 172.147 154.625 183.714 C 154.25 192.653 153.978 192.924 142 196.29 C 115.784 203.658 107.187 218.733 119.367 235.975 C 127.025 246.816 137.253 251.736 158 254.558 C 160.279 254.868 164.843 255.522 168.143 256.012 C 171.443 256.502 175.814 257.143 177.857 257.436 C 181.222 257.919 186.582 258.694 194.857 259.893 C 209.848 262.066 222.486 259.773 232.429 253.076 C 236.924 250.049 248.28 241.542 254.252 236.73 C 259.589 232.428 266.42 225.564 268.714 222.197 C 272.694 216.356 274.633 212.949 275.993 209.406 C 276.32 208.554 276.705 207.6 276.849 207.286 C 281.089 198.014 281.574 176.45 277.842 163.135 C 271.084 139.022 253.867 127.079 221 123.705 C 211.443 122.724 198.842 122.335 193.803 122.865 M 215.286 135.25 C 217.643 135.485 221.179 135.825 223.143 136.005 C 254.348 138.863 268.57 153.902 268.571 184.041 C 268.572 198.557 265.503 207.93 257.394 218.177 C 255.093 221.084 251.328 224.439 243.986 230.124 C 240.144 233.099 236.229 236.134 235.286 236.868 C 230.702 240.434 223.498 245.525 221.779 246.413 C 215.737 249.535 207.198 250.684 198.286 249.573 C 192.697 248.876 184.338 247.738 183.652 247.58 C 183.294 247.497 181.521 247.239 179.714 247.006 C 177.907 246.773 173.407 246.129 169.714 245.574 C 166.021 245.02 161.65 244.37 160 244.128 C 148.025 242.379 142.778 241.042 138.473 238.644 C 137.554 238.133 136.742 237.714 136.668 237.714 C 136.433 237.714 134.267 236.041 132.045 234.143 C 127.458 230.226 124.578 223.625 125.679 219.555 C 127.002 214.664 134.532 209.9 146 206.699 C 153.559 204.588 154.776 204.213 156.734 203.389 C 160.413 201.841 163.329 198.978 164.844 195.429 C 165.907 192.936 165.983 192.314 166.279 183.677 C 166.847 167.139 168.374 156.823 171.009 151.714 C 171.212 151.321 171.533 150.583 171.722 150.074 C 173.148 146.245 180.038 139.253 184.003 137.612 C 184.708 137.32 185.617 136.908 186.023 136.696 C 186.639 136.374 190.747 135.296 193.429 134.752 C 194.855 134.462 211.109 134.833 215.286 135.25 M 192.143 146.554 C 188.774 147.378 185.718 150.618 184.729 154.417 C 184.073 156.937 184.058 216.72 184.713 219.234 C 186.122 224.642 189.458 227.286 194.876 227.286 C 198.35 227.286 199.028 227.016 204.41 223.497 C 205.992 222.463 209.343 220.268 211.857 218.62 C 214.371 216.971 217.264 215.08 218.286 214.417 C 219.307 213.753 223.198 211.203 226.933 208.748 C 230.667 206.294 233.839 204.286 233.98 204.286 C 234.122 204.286 234.281 204.189 234.333 204.071 C 234.386 203.954 235.714 203.009 237.286 201.973 C 238.857 200.936 241.879 198.944 244 197.546 C 250.591 193.202 251.857 191.433 251.857 186.571 C 251.857 180.794 250.84 179.721 237.286 171.194 C 232.838 168.396 230.015 166.617 227.571 165.072 C 226.239 164.229 216.803 158.165 214.571 156.717 C 214.021 156.36 212.414 155.313 211 154.391 C 209.586 153.469 208.3 152.661 208.143 152.596 C 207.986 152.53 207.15 152.004 206.286 151.425 C 204.816 150.441 202.648 149.051 200.757 147.882 C 198.53 146.504 194.737 145.92 192.143 146.554 M 210.605 179.758 C 212.154 180.222 212.751 180.948 212.399 181.937 C 212.1 182.78 211.629 182.846 208.857 182.431 C 207.723 182.262 207.415 182.344 206.244 183.127 C 204.728 184.14 203.571 183.953 203.242 182.64 C 202.694 180.458 207.136 178.719 210.605 179.758 M 231.286 180.29 C 232.579 180.933 232.723 181.101 232.803 182.072 C 232.939 183.712 231.86 184.026 229.753 182.96 L 228.199 182.174 L 226.479 182.776 C 223.235 183.913 221.843 181.233 224.95 179.831 C 226.363 179.193 229.542 179.423 231.286 180.29 M 211.418 184.709 C 214.83 186.473 213.642 191.714 209.83 191.714 C 207.248 191.714 205.756 189.887 205.958 186.972 C 206.095 185.005 209.367 183.648 211.418 184.709 M 229.224 184.901 C 230.738 185.711 231.327 188.567 230.301 190.124 C 228.263 193.215 223.433 191.587 223.43 187.808 C 223.427 185.124 226.634 183.515 229.224 184.901" stroke="none" fill="#6ec6e0" fill-rule="evenodd"></path>
  </g>
</svg>
