<svg width="24" height="24" viewBox="0 0 24 24" fill="none" xmlns="http://www.w3.org/2000/svg">
<path fill-rule="evenodd" clip-rule="evenodd" d="M11.1937 0L12.8063 0C15.6252 0 17.4473 0.450867 19.0304 1.2975C20.6135 2.14414 21.8559 3.38654 22.7025 4.96961C23.5491 6.55268 24 8.37482 24 11.1937V12.8063C24 15.6252 23.5491 17.4473 22.7025 19.0304C21.8559 20.6135 20.6135 21.8559 19.0304 22.7025C17.4473 23.5491 15.6252 24 12.8063 24H11.1937C8.37482 24 6.55268 23.5491 4.96961 22.7025C3.38654 21.8559 2.14414 20.6135 1.2975 19.0304C0.450867 17.4473 0 15.6252 0 12.8063L0 11.1937C0 8.37482 0.450867 6.55268 1.2975 4.96961C2.14414 3.38654 3.38654 2.14414 4.96961 1.2975C6.55268 0.450867 8.37482 0 11.1937 0Z" fill="#EE2E24"/>
<path opacity="0.1" d="M11.1937 0.5H12.8063C15.566 0.5 17.302 0.940161 18.7946 1.73841C20.2905 2.53844 21.4616 3.70947 22.2616 5.20541C23.0598 6.698 23.5 8.43401 23.5 11.1937V12.8063C23.5 15.566 23.0598 17.302 22.2616 18.7946C21.4616 20.2905 20.2905 21.4616 18.7946 22.2616C17.302 23.0598 15.566 23.5 12.8063 23.5H11.1937C8.43401 23.5 6.698 23.0598 5.20541 22.2616C3.70947 21.4616 2.53844 20.2905 1.73841 18.7946C0.940161 17.302 0.5 15.566 0.5 12.8063V11.1937C0.5 8.43401 0.940161 6.698 1.73841 5.20541C2.53844 3.70947 3.70947 2.53844 5.20541 1.73841C6.698 0.940161 8.43401 0.5 11.1937 0.5Z" stroke="#EFEFEF"/>
<g clip-path="url(#clip0_2062_41513)">
<path fill-rule="evenodd" clip-rule="evenodd" d="M3.75 12.5701C3.75 12.9016 3.76289 13.1176 3.84235 13.4342C3.89175 13.631 3.96262 13.8128 4.04423 13.9946C4.10222 14.123 4.17524 14.2406 4.24611 14.3604C4.35135 14.5379 4.49095 14.6834 4.62196 14.8374C4.66491 14.8887 4.7229 14.9294 4.768 14.9764C4.80021 15.0106 4.83243 15.0342 4.86894 15.0641C4.88827 15.0812 4.89686 15.0898 4.91834 15.1069L5.08371 15.2288C5.27055 15.3657 5.38009 15.4106 5.56908 15.5069C5.65069 15.5475 5.74734 15.586 5.83754 15.616C6.13822 15.7208 6.46037 15.7785 6.78681 15.7871H6.96507C7.25715 15.7785 7.54709 15.7315 7.8177 15.6395L8.12267 15.524C8.38039 15.4128 8.68965 15.2245 8.89368 15.0342C8.9667 14.9657 9.04187 14.9037 9.1106 14.831C9.14496 14.7946 9.17503 14.7518 9.21369 14.7176C9.23946 14.7647 9.46282 14.97 9.50792 15.0042C9.72698 15.1818 9.98255 15.3571 10.2467 15.4641L10.5367 15.5732C10.5903 15.5903 10.6376 15.6031 10.6934 15.6202L10.934 15.6737C10.9683 15.678 10.9984 15.6844 11.0263 15.6866C11.705 15.7871 12.4008 15.6352 12.9872 15.2887C13.0237 15.2673 13.0494 15.2481 13.0859 15.2267C13.1525 15.1882 13.2127 15.139 13.2749 15.0941C13.3072 15.0705 13.3351 15.0491 13.363 15.0213C13.3802 15.0064 13.3888 15.0021 13.4059 14.9871L13.537 14.8673C13.5434 14.8609 13.5391 14.8652 13.5477 14.8566C13.5477 14.8566 13.5498 14.8545 13.552 14.8523L13.5906 14.8138C13.6207 14.7796 13.6615 14.7475 13.6894 14.7112C13.7582 14.6192 13.8162 14.5593 13.9042 14.4417C13.9278 14.4096 13.9472 14.3796 13.9686 14.3454C14.0116 14.2812 14.0545 14.2149 14.0889 14.1443C14.1082 14.1037 14.1254 14.078 14.1447 14.0395C14.2113 13.9091 14.3531 13.5882 14.3638 13.4556C14.4046 13.5027 14.4605 13.6289 14.4905 13.6845C14.5335 13.7615 14.5678 13.8428 14.6151 13.9176L15.1112 14.8481C15.1262 14.8802 15.1391 14.8951 15.1542 14.9251C15.2121 15.0406 15.2938 15.2096 15.3668 15.3058C15.4376 15.3999 15.515 15.4684 15.6181 15.5304C15.908 15.7037 16.2967 15.6737 16.5587 15.4684C16.5845 15.4491 16.6038 15.432 16.6253 15.4106C16.6683 15.3678 16.7112 15.3229 16.7434 15.2695C16.8186 15.1475 16.9045 14.9593 16.9668 14.8566C16.984 14.8267 16.9947 14.8053 17.0097 14.7753L17.231 14.3604C17.2481 14.3262 17.2632 14.3048 17.2782 14.2748C17.3749 14.0802 17.4865 13.8877 17.5875 13.6952L17.7249 13.4406C17.8452 13.2203 17.9569 12.9957 18.0814 12.7754L18.3478 12.2727C18.3649 12.2428 18.3757 12.2235 18.3929 12.1915C18.41 12.1572 18.4229 12.1401 18.4401 12.1059L18.5303 11.9369C18.5475 11.9091 18.5582 11.8834 18.5733 11.8535L19.0629 10.938C19.2154 10.6621 19.2025 10.3412 19.0436 10.0739C19.0264 10.0439 19.0135 10.0311 18.9942 10.0033L18.9255 9.92628C18.9147 9.91558 18.9212 9.922 18.9104 9.91344L18.8138 9.8343C18.7408 9.77869 18.6613 9.7466 18.5733 9.7188C18.453 9.67816 18.2962 9.67388 18.1631 9.69955C17.9719 9.73805 17.8409 9.82574 17.712 9.94981C17.6777 9.98403 17.6326 10.0439 17.6089 10.0846L17.4887 10.3134C17.4758 10.3391 17.4608 10.3626 17.4479 10.3904C17.4221 10.4418 17.3963 10.4952 17.3684 10.5487L16.4127 12.4054C16.3998 12.431 16.3848 12.4567 16.3719 12.4824L16.2946 12.6342C16.286 12.6492 16.2838 12.6556 16.2752 12.6706C16.2688 12.6834 16.2709 12.6791 16.2667 12.6898C16.2602 12.7005 16.2624 12.7005 16.2559 12.7134C16.1807 12.846 16.1099 12.9743 16.0734 13.1241L16.054 13.1882C16.054 13.1904 16.0519 13.1968 16.0497 13.1989C16.0433 13.2139 16.0476 13.2053 16.0433 13.2118C16.024 13.1262 16.0003 13.0321 15.9595 12.9529C15.9466 12.9273 15.9338 12.9016 15.9187 12.8738L14.5292 10.1787C14.5206 10.1637 14.5184 10.1594 14.5099 10.1423C14.3939 9.9113 14.1362 9.71452 13.8527 9.68457C13.8226 9.68243 13.7646 9.67388 13.741 9.67602C13.4253 9.70168 13.1611 9.84286 13.0129 10.1188C12.9034 10.322 12.8862 10.5423 12.9485 10.7648C12.9893 10.9123 13.1268 11.1262 13.2019 11.2738C13.217 11.3038 13.2298 11.3252 13.247 11.3551L13.5584 11.9391C13.0408 11.9391 12.5254 11.9391 12.0078 11.9391C11.7759 11.9391 11.5654 11.9562 11.4065 12.1145C11.3356 12.185 11.284 12.2407 11.2389 12.3326C11.0499 12.707 11.2175 13.1882 11.6126 13.338C11.7694 13.3978 11.9176 13.385 12.1259 13.385C12.3149 13.385 12.5039 13.385 12.6951 13.385C12.6693 13.4321 12.6306 13.4834 12.5963 13.524C12.4545 13.6866 12.4073 13.7379 12.214 13.862C12.199 13.8727 12.1947 13.8748 12.1796 13.8834C12.1646 13.8898 12.156 13.8962 12.1388 13.9048C11.7737 14.0909 11.2518 14.1208 10.8867 13.9369C10.775 13.8813 10.6698 13.8192 10.5775 13.7358C10.4851 13.6545 10.4056 13.5625 10.3326 13.462C10.309 13.4278 10.2897 13.3936 10.2682 13.3572C10.0685 13.0107 10.0234 12.5529 10.1522 12.1722C10.1737 12.1102 10.193 12.0546 10.2188 12.0011L10.3541 11.7722C10.4185 11.6781 10.5001 11.5968 10.5861 11.522C10.6956 11.4236 10.8244 11.3508 10.9619 11.2952C11.2604 11.1754 11.3249 11.2567 11.6062 10.9744C11.647 10.9337 11.6771 10.8803 11.7071 10.8311C11.8317 10.6279 11.8467 10.307 11.7436 10.0931C11.7007 10.0033 11.647 9.922 11.5783 9.85141L11.5525 9.82788C11.4945 9.77655 11.4365 9.72735 11.3657 9.69313C11.0156 9.51773 10.5882 9.65677 10.2553 9.79794L9.96537 9.94339C9.77638 10.0568 9.63248 10.1551 9.46282 10.3027C9.39194 10.3626 9.29745 10.446 9.24375 10.5166L9.18362 10.5829C9.06979 10.7177 8.96456 10.8546 8.87221 11.0065C8.82711 11.0813 8.79059 11.1455 8.74979 11.2268C8.54146 11.6396 8.41475 12.0866 8.41475 12.6257C8.41475 12.7775 8.42549 12.923 8.44482 13.0642C8.44697 13.0791 8.4577 13.1326 8.4577 13.1497C8.45556 13.1882 8.39542 13.2609 8.3718 13.2952L8.06683 13.6545L7.93797 13.7636C7.92079 13.7764 7.90575 13.7893 7.88642 13.8042C7.86495 13.8192 7.84991 13.8278 7.82844 13.8449C7.61582 13.9989 7.25286 14.1358 6.97581 14.1358C6.89205 14.1358 6.7997 14.1422 6.71379 14.1315C6.67943 14.1272 6.6601 14.1251 6.62574 14.1208C6.53124 14.1058 6.41097 14.0716 6.32936 14.0374C5.98573 13.8962 5.70868 13.6395 5.5476 13.308C5.32639 12.8481 5.36505 12.3198 5.62492 11.8856C5.74519 11.6845 5.9213 11.5177 6.12318 11.3958L6.31432 11.2995L6.52694 11.2311C6.59997 11.2097 6.68372 11.2011 6.76534 11.1904C6.9844 11.1583 7.14762 11.1754 7.33018 11.0471C7.34306 11.0385 7.35595 11.0279 7.37098 11.0172C7.54494 10.876 7.68884 10.6599 7.68884 10.4118C7.68884 10.2257 7.66521 10.091 7.57716 9.94339C7.56427 9.922 7.55568 9.90489 7.5385 9.8835C7.44615 9.76158 7.35165 9.68029 7.20776 9.61185C6.8942 9.45998 6.37231 9.56907 6.07808 9.63751L5.85902 9.70382C5.80747 9.72093 5.76882 9.73591 5.72157 9.75516C5.67432 9.77441 5.63136 9.79366 5.58411 9.81291C5.4123 9.8835 5.24908 9.98831 5.09659 10.0888C4.94411 10.1894 4.80666 10.3113 4.6778 10.4396C4.61122 10.5059 4.55323 10.5616 4.49524 10.6343C4.35135 10.8118 4.2139 10.9958 4.11081 11.2011C4.09792 11.2268 4.08719 11.2418 4.07645 11.2653C4.06356 11.2931 4.05712 11.3081 4.04638 11.3316L3.9347 11.599C3.82302 11.8941 3.75215 12.2428 3.75215 12.5701H3.75Z" fill="white"/>
<path fill-rule="evenodd" clip-rule="evenodd" d="M20.6905 9.78296L20.6927 9.76799C20.6561 9.75944 20.611 9.74018 20.5767 9.72735C20.4285 9.67174 20.4822 9.67174 20.3383 9.72521C20.3018 9.73805 20.2502 9.75302 20.2202 9.76799V9.56479L19.9045 9.38939L19.883 9.38725C19.8035 9.42362 19.5458 9.50704 19.4943 9.53484C19.2408 9.67602 19.4105 10.0846 19.7133 9.96264L20.1063 9.81719C20.1321 9.80863 20.1837 9.78296 20.2116 9.78083C20.2116 9.8728 20.2008 10.1252 20.2159 10.1958C20.2524 10.369 20.4607 10.4482 20.6068 10.3327C20.6454 10.3027 20.6776 10.2535 20.6905 10.1979C20.7013 10.1487 20.7098 9.82788 20.6905 9.77869V9.78296Z" fill="white"/>
<path fill-rule="evenodd" clip-rule="evenodd" d="M20.4531 8.70706V8.73487L20.5777 9.08352C20.6099 9.08139 20.8053 8.96588 20.8483 8.94021C20.8698 8.92738 20.8698 8.91241 20.8784 8.9338C20.8934 8.91027 20.8741 8.9231 20.8977 8.90171L21.1275 8.24932C21.1468 8.19371 21.1597 8.1766 21.1576 8.10601C21.1576 7.97981 21.0631 7.89211 20.9557 7.875H20.8805C20.8333 7.88356 20.7882 7.90495 20.7495 7.94345C20.7108 7.98195 20.7066 7.99692 20.6851 8.05254L20.4531 8.70706Z" fill="white"/>
<path fill-rule="evenodd" clip-rule="evenodd" d="M20.0126 8.90599L20.0255 8.92524L20.251 9.0493C20.279 9.06641 20.3026 9.07497 20.3262 9.09208L20.4529 8.73487V8.70706L20.2682 8.18301C20.2296 8.07393 20.1995 7.91136 20.047 7.87928C20.0406 7.87714 20.032 7.87714 20.0255 7.875H19.9525C19.8451 7.88997 19.7549 7.97125 19.7463 8.10173C19.742 8.17018 19.7979 8.30707 19.8236 8.37338C19.858 8.46322 19.8838 8.55092 19.916 8.63648C19.9332 8.67926 19.9461 8.72204 19.9611 8.76482C19.9697 8.79048 19.974 8.8076 19.9847 8.83326C19.9955 8.86107 20.0019 8.8739 20.0083 8.90385L20.0126 8.90599Z" fill="white"/>
<path fill-rule="evenodd" clip-rule="evenodd" d="M20.8999 8.90171C20.8763 8.9231 20.8957 8.91027 20.8806 8.93379L20.7539 9.29314L21.0073 9.38726H21.0288L21.5528 9.0878C21.6452 9.03647 21.7805 8.96802 21.7418 8.7862C21.7118 8.64931 21.5722 8.57445 21.4412 8.60653C21.3939 8.61936 21.0825 8.80332 21.0116 8.84182C20.973 8.86321 20.9408 8.8846 20.9021 8.90171H20.8999Z" fill="white"/>
<path fill-rule="evenodd" clip-rule="evenodd" d="M19.8846 9.3894L19.906 9.39154C19.9318 9.37015 20.1208 9.3124 20.1595 9.29315C20.1466 9.26534 20.138 9.23112 20.1273 9.20117L20.0607 9.01508C20.0521 8.98728 20.0392 8.94877 20.0263 8.92311L20.0134 8.90386L19.6956 8.72204C19.6676 8.70707 19.5109 8.61509 19.4808 8.60654C19.4421 8.59584 19.367 8.59584 19.3283 8.61082C19.2553 8.63648 19.1823 8.70921 19.1715 8.79049C19.1415 9.00867 19.3068 9.05358 19.4636 9.1477L19.7815 9.32737C19.8051 9.34021 19.8717 9.37443 19.8867 9.38727L19.8846 9.3894Z" fill="white"/>
<path fill-rule="evenodd" clip-rule="evenodd" d="M20.6918 9.76799L20.6896 9.78296C20.7219 9.7851 20.8572 9.83858 20.8937 9.85355C20.9259 9.86638 20.956 9.87708 20.9903 9.88991L21.1879 9.96478C21.2996 10.0097 21.4091 9.98831 21.4821 9.89633C21.5788 9.77441 21.5337 9.60115 21.4134 9.53698C21.3833 9.52201 21.3511 9.51131 21.3168 9.49848L21.0247 9.38725H21.0032L20.6875 9.56479L20.6896 9.76799H20.6918Z" fill="white"/>
</g>
<defs>
<clipPath id="clip0_2062_41513">
<rect width="18" height="7.91209" fill="white" transform="translate(3.75 7.875)"/>
</clipPath>
</defs>
</svg>
