<svg width="64" height="64" viewBox="0 0 64 64" fill="none" xmlns="http://www.w3.org/2000/svg">
<path fill-rule="evenodd" clip-rule="evenodd" d="M29.8498 0L34.1502 0C41.6672 0 46.5262 1.20231 50.7477 3.46C54.9692 5.7177 58.2823 9.03077 60.54 13.2523C62.7977 17.4738 64 22.3328 64 29.8498V34.1502C64 41.6672 62.7977 46.5262 60.54 50.7477C58.2823 54.9692 54.9692 58.2823 50.7477 60.54C46.5262 62.7977 41.6672 64 34.1502 64H29.8498C22.3328 64 17.4738 62.7977 13.2523 60.54C9.03077 58.2823 5.7177 54.9692 3.46 50.7477C1.20231 46.5262 0 41.6672 0 34.1502L0 29.8498C0 22.3328 1.20231 17.4738 3.46 13.2523C5.7177 9.03077 9.03077 5.7177 13.2523 3.46C17.4738 1.20231 22.3328 0 29.8498 0Z" fill="#E10B6B"/>
<path opacity="0.1" d="M29.8498 0.5H34.1502C41.608 0.5 46.3809 1.69161 50.5119 3.90091C54.6463 6.112 57.888 9.3537 60.0991 13.4881C62.3084 17.6191 63.5 22.392 63.5 29.8498V34.1502C63.5 41.608 62.3084 46.3809 60.0991 50.5119C57.888 54.6463 54.6463 57.888 50.5119 60.0991C46.3809 62.3084 41.608 63.5 34.1502 63.5H29.8498C22.392 63.5 17.6191 62.3084 13.4881 60.0991C9.3537 57.888 6.112 54.6463 3.90091 50.5119C1.69161 46.3809 0.5 41.608 0.5 34.1502V29.8498C0.5 22.392 1.69161 17.6191 3.90091 13.4881C6.112 9.3537 9.3537 6.112 13.4881 3.90091C17.6191 1.69161 22.392 0.5 29.8498 0.5Z" stroke="#EFEFEF"/>
<path d="M19.8923 24.8443C19.8179 24.8443 19.7831 25.005 19.5424 25.1867C19.259 25.4027 19.0056 25.483 18.4341 25.6503C17.8007 25.8347 17.5901 26.0651 17.3986 26.3864C17.3058 26.5427 17.2669 26.7173 17.2861 26.8908C17.2988 26.9488 17.3115 27.0133 17.3606 27.0001C17.4096 26.987 17.6076 26.4431 18.2314 26.4075C18.4039 26.3893 18.5786 26.4239 18.7227 26.5048C18.8669 26.5857 18.9708 26.7075 19.0151 26.8474C19.0284 26.8994 19.0368 26.9523 19.0405 27.0054C19.1149 27.7705 18.2203 28.4843 17.1405 28.4461C16.3361 28.4171 15.4542 27.9904 15.3165 27.1924C15.193 26.5274 15.5255 25.8307 16.0796 25.5831C16.1604 25.6002 16.2617 25.6226 16.3741 25.6411C16.5729 25.6774 16.7782 25.6819 16.979 25.6542C17.169 25.6279 17.3906 25.5318 17.3653 25.3909C17.3273 25.1762 16.9093 25.1446 16.6924 25.1459C16.5236 25.1472 16.3556 25.1653 16.1921 25.1999C16.0168 25.0853 15.8934 24.9247 15.8421 24.7442C15.6949 24.3149 15.9831 23.5919 16.8254 23.5195C17.0305 23.4941 17.2401 23.5148 17.4322 23.5797C17.6244 23.6446 17.7921 23.7511 17.9179 23.8882C18.138 24.1213 18.2108 24.2043 18.2678 24.1898C18.3248 24.1753 18.3264 24.1529 18.3311 24.0779V23.6328C18.3279 23.5884 18.32 23.5443 18.3074 23.5011C18.233 23.2443 17.4904 22.9743 16.7051 23.002C16.4342 23.0089 16.1666 23.0534 15.9134 23.1337C15.5562 23.2268 15.2497 23.4213 15.0472 23.6831C14.8447 23.9449 14.759 24.2575 14.8051 24.5665C14.8347 24.7238 14.9043 24.8741 15.0091 25.0074C15.1139 25.1406 15.2516 25.2538 15.413 25.3395C14.902 25.499 14.4815 25.8124 14.235 26.2174C13.9884 26.6225 13.9336 27.0898 14.0815 27.5269C14.4061 28.5949 15.858 28.9834 16.8396 28.9992C17.9258 29.019 18.7 28.6673 19.1719 28.2433C19.3759 28.0621 19.5298 27.8459 19.6228 27.61C19.7158 27.3741 19.7456 27.1242 19.7102 26.8777C19.677 26.7065 19.5171 26.3193 19.1608 26.1389C19.2787 26.1035 19.3909 26.0562 19.4949 25.998C19.626 25.9192 19.7368 25.8195 19.8208 25.7046C19.9049 25.5897 19.9604 25.462 19.9841 25.329C20.0157 25.1745 20 25.016 19.9382 24.868C19.9339 24.8616 19.9278 24.8562 19.9203 24.8523C19.9128 24.8483 19.9043 24.8461 19.8955 24.8456" fill="white"/>
<path d="M21.3739 29H22.9349C23.4402 29 23.9566 28.5612 23.9972 27.4528C24.0387 26.3125 23.62 25.8813 23.0917 25.8813H22.3909C22.2065 25.8813 22.0995 25.8904 21.9843 26.2244L21.7519 26.9411H22.674C22.7158 26.9353 22.7579 26.9447 22.7973 26.9684C22.8367 26.9922 22.8725 27.0298 22.9021 27.0786C22.9318 27.1275 22.9546 27.1864 22.9691 27.2513C22.9835 27.3162 22.9891 27.3854 22.9857 27.4543C22.9885 27.5208 22.9824 27.5875 22.9678 27.6497C22.9532 27.7119 22.9305 27.7681 22.9014 27.8143C22.8722 27.8605 22.8372 27.8956 22.7988 27.9171C22.7605 27.9386 22.7198 27.9459 22.6795 27.9387H21.834C21.7244 27.9474 21.615 27.9149 21.5142 27.8436C21.4134 27.7723 21.3238 27.6641 21.2522 27.5272C21.104 27.2284 21.0284 26.8496 21.0401 26.4643C21.0259 26.0891 21.1021 25.7197 21.2522 25.4364C21.316 25.3215 21.3932 25.2289 21.4793 25.1642C21.5653 25.0996 21.6583 25.064 21.7528 25.0598L21.8386 25.0522H23.3554C23.5398 25.0522 23.6468 25.0522 23.763 24.7121L23.9935 24H21.4034C20.5901 24 20 25.0765 20 26.5038C20 27.7838 20.473 28.8011 21.1683 28.9787C21.2363 28.9954 21.3051 29.002 21.3739 28.9985" fill="white"/>
<path d="M11.0499 25.4959C11.0499 25.0412 10.7796 25.0518 10.7796 25.0518H9.35714L8.5091 26.1643L10.1505 28.9909H9.02667C8.60758 28.9909 8.45548 28.7105 8.22678 28.2846L7.43893 26.8478C7.4231 26.8192 7.40114 26.7982 7.37618 26.7878C7.35123 26.7775 7.32455 26.7783 7.29996 26.7902C7.28347 26.7997 7.26921 26.8154 7.25878 26.8355C7.24834 26.8555 7.24214 26.8792 7.24087 26.9039V28.9909H6V24H7.24525V26.1143L8.52441 24.3637C8.61921 24.2258 8.73673 24.1218 8.86691 24.0606C8.97082 24.0228 9.07792 24.0045 9.18534 24.0061H14L13.7264 24.7214C13.5929 25.0367 13.4748 25.0594 13.2701 25.0594H12.2612V29H11.0499V25.4959Z" fill="white"/>
<path d="M9.99077 32.0746V32.5482C9.99077 32.8746 9.99652 33.1451 10.007 33.3559C10.0181 33.5812 10.0627 33.8034 10.1391 34.0154C10.2897 34.4611 10.5536 34.8594 10.9047 35.1706C11.3267 35.5467 11.8097 35.8472 12.3326 36.0592L11.3593 37.5273C10.9028 37.3205 10.4729 37.059 10.0788 36.7485C9.69355 36.4307 9.37339 36.0407 9.13616 35.6C8.91474 36.0452 8.61293 36.4451 8.24613 36.7793C7.87789 37.106 7.47512 37.391 7.04506 37.6293L6 36.2527C6.58889 35.9658 7.04762 35.6475 7.3762 35.2977C7.70744 34.9421 7.96106 34.5207 8.12076 34.0606C8.19849 33.8354 8.24549 33.6006 8.26048 33.3627C8.27516 33.1265 8.28218 32.855 8.28154 32.5482V32.0746H9.99077ZM11.9345 39.497C11.9334 39.1656 12.0012 38.8377 12.1335 38.5343C12.2613 38.2344 12.4463 37.9626 12.6781 37.7343C12.9102 37.5055 13.1824 37.3221 13.481 37.1932C13.792 37.0611 14.1263 36.993 14.4639 36.993C14.8015 36.993 15.1357 37.0611 15.4467 37.1932C15.748 37.3208 16.0227 37.5044 16.2564 37.7343C16.4884 37.9623 16.6735 38.2342 16.8009 38.5343C16.9322 38.8394 17 39.1683 17 39.5008C17 39.8333 16.9322 40.1622 16.8009 40.4674C16.6714 40.7641 16.4866 41.033 16.2564 41.2597C16.0226 41.4892 15.748 41.6725 15.4467 41.7997C15.1357 41.9319 14.8015 42 14.4639 42C14.1263 42 13.792 41.9319 13.481 41.7997C13.1825 41.6712 12.9102 41.4881 12.6781 41.2597C12.4482 41.0327 12.2634 40.7639 12.1335 40.4674C11.9999 40.1617 11.932 39.8309 11.9345 39.497ZM13.1126 30C13.7997 30.1406 14.2773 30.412 14.5414 30.8154C14.8055 31.2188 14.9386 31.7694 14.9386 32.4606V34.3119H16.7655V35.8676H13.26V32.4606C13.2724 32.2458 13.2097 32.0333 13.0829 31.8599C12.9652 31.7174 12.7642 31.601 12.479 31.5124L13.1126 30ZM13.5116 39.497C13.5176 39.7094 13.5962 39.9132 13.7343 40.0741C13.8724 40.2349 14.0615 40.3428 14.2696 40.3795C14.4777 40.4162 14.692 40.3796 14.8763 40.2757C15.0606 40.1718 15.2035 40.0071 15.281 39.8094C15.3585 39.6117 15.3658 39.3932 15.3015 39.1907C15.2373 38.9883 15.1055 38.8144 14.9285 38.6984C14.7515 38.5824 14.5401 38.5314 14.3301 38.5542C14.12 38.5769 13.9242 38.6719 13.7758 38.8231C13.689 38.9118 13.621 39.0172 13.5756 39.133C13.5302 39.2488 13.5085 39.3726 13.5116 39.497Z" fill="white"/>
<path d="M22.3539 32.0746V32.5483C22.3539 32.8746 22.354 33.1451 22.3696 33.356C22.3822 33.5811 22.4308 33.8033 22.5137 34.0154C22.6787 34.4608 22.9666 34.8589 23.349 35.1706C23.8096 35.5469 24.3369 35.8475 24.9079 36.0592L23.847 37.5264C23.3487 37.3196 22.8793 37.0581 22.449 36.7475C22.0284 36.4301 21.679 36.0399 21.4205 35.599C21.18 36.0449 20.8506 36.4449 20.4495 36.7783C20.0481 37.105 19.609 37.3901 19.1402 37.6284L18 36.2518C18.6418 35.9649 19.1423 35.6465 19.5014 35.2968C19.8628 34.9413 20.1392 34.5199 20.3127 34.0597C20.3982 33.8347 20.4491 33.5998 20.4641 33.3617C20.4819 33.1259 20.4892 32.8544 20.4892 32.5473V32.0746H22.3539ZM24.4735 39.497C24.4728 39.1657 24.5468 38.8379 24.6907 38.5343C24.8293 38.234 25.0313 37.9621 25.2848 37.7343C25.538 37.506 25.8346 37.3226 26.1597 37.1933C26.4993 37.0611 26.864 36.993 27.2326 36.993C27.6011 36.993 27.9659 37.0611 28.3054 37.1933C28.6341 37.3209 28.9337 37.5044 29.1887 37.7343C29.4419 37.9623 29.6438 38.2342 29.7828 38.5343C29.9261 38.8394 30 39.1684 30 39.5009C30 39.8333 29.9261 40.1623 29.7828 40.4674C29.6415 40.7641 29.4399 41.0331 29.1887 41.2597C28.9337 41.4893 28.634 41.6725 28.3054 41.7998C27.9659 41.9319 27.6011 42 27.2326 42C26.864 42 26.4993 41.9319 26.1597 41.7998C25.8346 41.6708 25.538 41.4877 25.2848 41.2597C25.0333 41.0333 24.8316 40.7643 24.6907 40.4674C24.5453 40.1615 24.4713 39.8309 24.4735 39.497ZM25.7588 30C26.5085 30.1406 27.0284 30.4124 27.3187 30.8154C27.609 31.2185 27.7531 31.7669 27.751 32.4607V34.3119H29.7431V35.8676H25.9196V32.4607C25.9336 32.2457 25.8652 32.0331 25.7264 31.8599C25.598 31.7174 25.3777 31.601 25.0676 31.5124L25.7588 30ZM26.1932 39.497C26.1996 39.7094 26.2854 39.9133 26.4361 40.0741C26.5868 40.2349 26.7931 40.3428 27.0201 40.3795C27.2471 40.4163 27.4809 40.3796 27.682 40.2757C27.883 40.1719 28.039 40.0072 28.1236 39.8095C28.2081 39.6118 28.216 39.3932 28.1459 39.1908C28.0759 38.9883 27.9321 38.8144 27.739 38.6984C27.5459 38.5824 27.3152 38.5315 27.0861 38.5542C26.8569 38.5769 26.6433 38.6719 26.4813 38.8231C26.3869 38.912 26.3127 39.0174 26.2632 39.1332C26.2137 39.2489 26.1899 39.3726 26.1932 39.497Z" fill="white"/>
<path d="M36.5193 38H31V32.4121H36.5193V38ZM34.7315 34.0399H32.7858V36.3867H34.7315V34.0399ZM37.3192 31.6299C37.6328 31.7253 37.8493 31.8509 37.9789 32.0044C38.1176 32.1911 38.1857 32.4203 38.1713 32.6518V36.3234H42V34.6469H40.0051V32.6518C40.0051 31.9069 39.8605 31.3159 39.5712 30.8787C39.282 30.4416 38.762 30.1487 38.0113 30L37.3192 31.6299Z" fill="white"/>
<path d="M42 37.4234V32.2383H46.5714V33.7613H43.7464V35.8792H46.6023V37.4195L42 37.4234ZM46.7239 39.497C46.7228 39.1657 46.7934 38.8377 46.9312 38.5343C47.0636 38.2343 47.256 37.9624 47.4974 37.7343C47.7391 37.506 48.0223 37.3226 48.3327 37.1933C48.6569 37.0611 49.0051 36.993 49.3569 36.993C49.7088 36.993 50.057 37.0611 50.3812 37.1933C50.6954 37.3206 50.9819 37.5042 51.2255 37.7343C51.4672 37.9623 51.6599 38.2342 51.7926 38.5343C51.9294 38.8394 52 39.1684 52 39.5009C52 39.8333 51.9294 40.1623 51.7926 40.4674C51.6578 40.7641 51.4652 41.0331 51.2255 41.2597C50.9818 41.4895 50.6953 41.6728 50.3812 41.7998C50.057 41.9319 49.7088 42 49.3569 42C49.0051 42 48.6569 41.9319 48.3327 41.7998C48.0223 41.6708 47.7392 41.4877 47.4974 41.2597C47.2579 41.033 47.0657 40.7641 46.9312 40.4674C46.792 40.1617 46.7213 39.831 46.7239 39.497ZM48.0267 30C48.7424 30.1406 49.2388 30.4124 49.5159 30.8154C49.793 31.2185 49.9309 31.7669 49.9296 32.4607V34.3119H51.8305V35.8676H48.1812V32.4607C48.1946 32.2457 48.1293 32.0331 47.9968 31.8599C47.8742 31.7174 47.6639 31.601 47.3688 31.5124L48.0267 30ZM48.3656 39.497C48.3721 39.7092 48.4543 39.9127 48.5982 40.0731C48.7421 40.2335 48.939 40.3411 49.1555 40.3775C49.372 40.4139 49.5949 40.377 49.7865 40.273C49.9781 40.169 50.1267 40.0043 50.207 39.8067C50.2874 39.6091 50.2947 39.3908 50.2276 39.1887C50.1605 38.9865 50.0232 38.813 49.8389 38.6973C49.6546 38.5817 49.4346 38.531 49.2161 38.5539C48.9976 38.5768 48.794 38.6719 48.6397 38.8231C48.5497 38.912 48.4791 39.0175 48.432 39.1332C48.3849 39.249 48.3623 39.3727 48.3656 39.497Z" fill="white"/>
<path d="M46.4927 23.6136C45.7756 23.1722 45.2631 23.0003 44.888 23.0003C44.741 22.9963 44.5955 23.029 44.4665 23.095C44.3375 23.161 44.2296 23.258 44.1538 23.376C43.8298 23.839 43.9301 24.4381 45.3172 25.2908C46.2319 25.8543 48.5888 26.4957 50 27C48.9439 25.9867 47.4064 24.177 46.4897 23.6192" fill="white"/>
<path d="M54.688 29.1072C53.7791 28.3945 51.4082 27.639 50 27C51.0516 28.2805 52.6096 30.5148 53.5175 31.2239C54.2315 31.781 54.7439 31.9995 55.1154 31.9995C55.2618 32.0049 55.4067 31.9637 55.5352 31.8801C55.6637 31.7966 55.7712 31.6738 55.8465 31.5244C56.169 30.9388 56.0712 30.1834 54.689 29.1024" fill="white"/>
<path d="M60.1869 32.8545C59.4728 32.0954 57.253 30.8599 56 30C56.6753 31.1873 57.5645 33.1793 58.2764 33.9375C59.3608 35.0895 60.0705 35.1438 60.5972 34.8482C61.1238 34.5527 61.2702 34.0039 60.188 32.8536" fill="white"/>
<path d="M56 29.9959C55.4556 28.5772 54.7759 26.1674 54.2002 25.2669C53.3253 23.8934 52.7513 23.8276 52.3251 24.1823C51.8989 24.537 51.7825 25.1877 52.6582 26.5612C53.234 27.4659 54.9864 28.974 56 30" fill="white"/>
</svg>
