<svg width="64" height="64" viewBox="0 0 64 64" fill="none" xmlns="http://www.w3.org/2000/svg">
<path fill-rule="evenodd" clip-rule="evenodd" d="M29.8498 0L34.1502 0C41.6672 0 46.5262 1.20231 50.7477 3.46C54.9692 5.7177 58.2823 9.03077 60.54 13.2523C62.7977 17.4738 64 22.3328 64 29.8498V34.1502C64 41.6672 62.7977 46.5262 60.54 50.7477C58.2823 54.9692 54.9692 58.2823 50.7477 60.54C46.5262 62.7977 41.6672 64 34.1502 64H29.8498C22.3328 64 17.4738 62.7977 13.2523 60.54C9.03077 58.2823 5.7177 54.9692 3.46 50.7477C1.20231 46.5262 0 41.6672 0 34.1502L0 29.8498C0 22.3328 1.20231 17.4738 3.46 13.2523C5.7177 9.03077 9.03077 5.7177 13.2523 3.46C17.4738 1.20231 22.3328 0 29.8498 0Z" fill="#DA2915"/>
<path d="M42.1561 22.4108C42.1897 24.1406 41.3796 25.6404 40.057 26.9286C38.7949 28.1577 37.5335 29.3904 36.3305 30.6771C34.0207 33.1469 30.0098 33.1586 27.6657 30.6976C26.3834 29.3522 25.0788 28.0287 23.7518 26.7272C22.7704 25.7667 22.1149 24.6515 21.9064 23.2932C21.5965 21.2774 22.1193 19.498 23.5411 18.031C24.9949 16.529 26.4716 15.0486 27.9712 13.5899C29.2705 12.3309 30.8614 11.8587 32.6536 12.036C34.095 12.182 35.2849 12.8214 36.294 13.8431C37.6691 15.2342 39.0647 16.6034 40.4303 18.0077C41.5699 19.182 42.1729 20.5942 42.1561 22.4108ZM30.1585 20.0491C30.1432 19.263 30.1964 18.4901 30.51 17.7573C30.7542 17.1866 31.1494 16.8173 31.8092 16.8173C32.4691 16.8173 32.8526 17.1961 33.1078 17.7617C33.3754 18.3631 33.4468 19.0024 33.4585 19.6484C33.4935 21.5679 33.1187 23.3918 32.168 25.0799C31.9937 25.3894 32.0666 25.6718 32.3211 25.8061C32.3825 25.8407 32.4503 25.8622 32.5203 25.8695C32.5904 25.8767 32.6612 25.8695 32.7283 25.8482C32.7954 25.8269 32.8575 25.792 32.9106 25.7457C32.9637 25.6995 33.0068 25.6427 33.0371 25.5791C33.2643 25.177 33.4695 24.7628 33.6517 24.3384C34.1468 23.1356 34.3852 21.87 34.4596 20.5775C34.5208 19.5185 34.4763 18.4653 34.1016 17.4486C33.737 16.4633 32.9255 15.8429 31.9142 15.8072C30.8446 15.7721 30.0112 16.2984 29.5884 17.2902C29.3332 17.8969 29.1893 18.5447 29.1633 19.2024C29.0949 20.7964 29.256 22.3919 29.6416 23.9399C29.9471 25.1952 30.3911 26.3973 31.2529 27.4125C32.2584 28.597 33.8048 28.8233 35.0742 27.9519C35.8216 27.441 36.3961 26.7775 36.8919 26.0353C37.1376 25.6704 37.1165 25.3996 36.8423 25.2047C36.5682 25.0098 36.3064 25.0894 36.052 25.4499C36.0024 25.5229 35.9594 25.5959 35.9061 25.6616C35.4621 26.2769 34.9692 26.8447 34.3021 27.2264C33.702 27.5687 33.1085 27.5913 32.5238 27.1724C32.0209 26.8048 31.6215 26.3133 31.3645 25.7455C30.507 23.945 30.2365 22.016 30.1585 20.0491ZM29.4608 28.4774C29.5359 28.4805 29.6109 28.4684 29.6813 28.4419C29.7517 28.4153 29.816 28.3749 29.8704 28.3229C29.9249 28.271 29.9683 28.2086 29.9981 28.1394C30.0279 28.0703 30.0435 27.9959 30.0439 27.9206C30.0444 27.8453 30.0296 27.7707 30.0007 27.7012C29.9717 27.6318 29.929 27.5689 29.8752 27.5163C29.8214 27.4637 29.7575 27.4224 29.6874 27.3951C29.6174 27.3677 29.5425 27.3548 29.4673 27.357C29.1684 27.357 28.9402 27.6052 28.9387 27.9358C28.9371 28.0058 28.9493 28.0754 28.9747 28.1406C29.0001 28.2058 29.0382 28.2653 29.0868 28.3157C29.1353 28.366 29.1934 28.4063 29.2576 28.434C29.3218 28.4618 29.3908 28.4765 29.4608 28.4774Z" fill="white"/>
<path d="M23.137 45.1537C21.5016 45.1719 20.187 44.6844 19.2589 43.4451C17.7569 41.4395 18.6923 38.4361 21.0503 37.6063C22.7039 37.0224 24.3313 37.0545 25.8515 37.9873C27.0502 38.7237 27.6444 39.8645 27.6131 41.2665C27.581 42.6926 26.9306 43.7947 25.6802 44.5238C24.9071 44.9655 24.0267 45.1835 23.137 45.1537ZM25.3769 41.0169C25.4228 40.6396 25.2733 40.1104 25.0415 39.6134C24.7156 38.9135 24.2132 38.3668 23.4185 38.2267C22.6033 38.0851 21.934 38.4084 21.4499 39.0602C20.5749 40.2352 20.5487 42.0197 21.3697 43.2415C22.117 44.356 23.5169 44.5136 24.4757 43.5845C25.145 42.9364 25.3638 42.1087 25.3769 41.0169Z" fill="white"/>
<path d="M48.9254 37.5341C49.8237 37.5341 50.7234 37.5457 51.6232 37.5268C51.9221 37.5209 52.0227 37.6326 51.9957 37.907C51.9702 38.161 52.1109 38.5048 51.6377 38.5018C50.4595 38.496 49.2812 38.5018 48.1037 38.5018C47.5933 38.5018 47.4818 38.6164 47.4745 39.1222C47.4694 39.4747 47.4803 39.8273 47.4745 40.1798C47.4694 40.4082 47.5474 40.4936 47.7931 40.5002C48.8868 40.5316 49.9761 40.5002 51.0676 40.4739C51.1886 40.4739 51.3104 40.4739 51.4321 40.4739C51.8732 40.4848 52.1095 40.9118 51.8922 41.3015C51.8025 41.4643 51.6414 41.4264 51.5021 41.4264C50.3355 41.43 49.169 41.4264 48.0024 41.4264C47.4781 41.4264 47.4759 41.4315 47.4745 41.957C47.4745 42.37 47.4701 42.7839 47.4745 43.1977C47.4818 43.7371 47.6116 43.8743 48.1424 43.8757C49.2958 43.8801 50.45 43.8852 51.6035 43.867C51.8878 43.8626 52.0213 43.9348 51.9935 44.2261C51.968 44.4903 52.1197 44.8457 51.6224 44.8435C49.8368 44.8362 48.0498 44.8486 46.2656 44.8355C45.5788 44.8304 45.2798 44.4903 45.2485 43.8181C45.1756 42.2993 45.2098 40.7797 45.2055 39.2609C45.2055 38.9821 45.2266 38.7026 45.2536 38.4245C45.3127 37.8041 45.597 37.5399 46.2299 37.5341C47.1282 37.526 48.0272 37.5341 48.9276 37.5341H48.9254Z" fill="white"/>
<path d="M40.2336 37.5326C41.4112 37.5326 42.5887 37.5406 43.7655 37.5275C44.044 37.5238 44.1519 37.6297 44.1176 37.888C44.0848 38.1311 44.2678 38.5018 43.7895 38.5047C43.0604 38.5091 42.3313 38.5186 41.6022 38.5047C41.2836 38.4974 41.1778 38.6135 41.18 38.9281C41.1902 40.714 41.1851 42.4999 41.1851 44.2859C41.1851 44.8296 41.1691 44.8464 40.6419 44.8486C40.2176 44.8486 39.7925 44.8486 39.3682 44.8486C38.8738 44.8486 38.849 44.8238 38.8483 44.3377C38.8483 42.5861 38.8483 40.8366 38.8483 39.0894C38.8483 38.5106 38.8483 38.5106 38.265 38.5106C37.7678 38.5106 37.2698 38.5142 36.7725 38.5106C36.3722 38.5062 36.3577 38.4602 36.3555 37.9012C36.3555 37.5895 36.4743 37.5231 36.7718 37.5282C37.9245 37.5479 39.078 37.5362 40.2307 37.5362L40.2336 37.5326Z" fill="white"/>
<path d="M31.8017 37.5333C32.9683 37.5333 34.1349 37.5443 35.3015 37.5268C35.6143 37.5216 35.685 37.6567 35.6602 37.9179C35.6354 38.1792 35.7747 38.5172 35.3008 38.5091C34.7299 38.4989 34.159 38.5215 33.5888 38.5033C33.2709 38.4931 33.1645 38.6077 33.1666 38.9244C33.1776 40.6761 33.1717 42.4277 33.1725 44.1749C33.1725 44.8457 33.1725 44.8464 32.4835 44.8464C32.0948 44.8464 31.7062 44.8464 31.3169 44.8464C30.867 44.842 30.8342 44.8077 30.8335 44.3355C30.8335 42.5732 30.8335 40.8108 30.8335 39.0485C30.8335 38.5128 30.8335 38.5113 30.2815 38.5106C29.6253 38.5106 28.9691 38.4916 28.3129 38.5157C27.9112 38.5303 27.8966 38.307 27.8937 38.0085C27.8908 37.7099 27.9389 37.5268 28.3056 37.5319C29.4722 37.5479 30.6388 37.5377 31.8054 37.5377L31.8017 37.5333Z" fill="white"/>
<path d="M12.0052 40.8738C12.0052 39.9017 12.014 38.9295 12.0001 37.9544C11.9957 37.6391 12.1073 37.5202 12.423 37.5282C12.8605 37.5384 13.298 37.5085 13.7354 37.5049C14.1517 37.5005 14.2232 37.572 14.2239 37.988C14.2239 39.691 14.2239 41.3923 14.2239 43.0918C14.2239 43.7655 14.3369 43.8823 15.007 43.8742C16.0146 43.8626 17.0223 43.9166 18.0285 43.8421C18.2778 43.8239 18.3726 43.9363 18.3857 44.1815C18.4185 44.8121 18.3974 44.8428 17.7682 44.8428C16.2506 44.8428 14.7331 44.8428 13.2156 44.8428C12.3078 44.8435 12.006 44.5421 12.0045 43.6451C12.0045 42.7206 12.0045 41.7961 12.0045 40.8716L12.0052 40.8738Z" fill="white"/>
<path d="M40.1029 48.881C40.1029 49.4883 40.097 50.0948 40.1029 50.702C40.1029 50.9553 40.0249 51.0779 39.7478 51.0793C39.4707 51.0808 39.3526 50.9823 39.3555 50.6984C39.3635 49.7999 39.3555 48.9007 39.3614 47.9979C39.3614 47.5921 39.478 47.487 39.8892 47.4739C40.0227 47.4688 40.1568 47.4739 40.2902 47.4739C40.6504 47.4739 40.8735 47.6366 40.98 47.9957C41.1061 48.4132 41.2716 48.8197 41.4233 49.2292C41.4605 49.3277 41.4794 49.4423 41.642 49.5153C41.8455 49.0109 42.0467 48.5088 42.2494 48.0081C42.4521 47.5075 43.3124 47.2557 43.7448 47.5534C43.8717 47.641 43.8906 47.7724 43.8906 47.9067C43.8906 48.8555 43.8906 49.8043 43.8906 50.7531C43.8906 50.9881 43.7842 51.0655 43.5574 51.0757C42.7102 51.1166 42.7109 51.1231 42.7109 50.278C42.7236 49.8216 42.6992 49.3649 42.638 48.9124C42.3974 49.5094 42.1495 50.1035 41.9176 50.7035C41.8236 50.9465 41.688 51.0786 41.4073 51.0779C41.1265 51.0771 40.9756 50.9793 40.8808 50.7275C40.6461 50.105 40.3989 49.4868 40.1568 48.8664L40.1029 48.881Z" fill="white"/>
<path d="M27.6093 49.9524C27.6093 49.2131 27.6195 48.546 27.605 47.8789C27.5984 47.579 27.7114 47.4739 28.0082 47.4702C28.7869 47.46 28.7869 47.4498 28.7869 48.2395C28.7869 48.9927 28.792 49.7459 28.7869 50.502C28.7818 51.0012 28.7015 51.0443 28.2152 51.0859C27.7048 51.1282 27.3702 50.956 27.1216 50.502C26.8299 49.9692 26.4865 49.4685 26.165 48.954C26.103 48.8555 26.0636 48.735 25.8733 48.6621C25.8733 49.2226 25.8733 49.7503 25.8733 50.2772C25.8682 51.1654 25.99 51.08 24.9984 51.08C24.8073 51.08 24.6994 51.0034 24.6994 50.8027C24.6994 49.8296 24.6994 48.8579 24.6994 47.8877C24.6957 47.8265 24.707 47.7654 24.7325 47.7096C24.7579 47.6539 24.7966 47.6052 24.8453 47.568C25.1369 47.3571 25.9732 47.4775 26.1759 47.787C26.5601 48.3767 26.9196 48.9817 27.29 49.5802C27.3661 49.7274 27.4755 49.8548 27.6093 49.9524Z" fill="white"/>
<path d="M34.1473 51.072C33.7339 51.072 33.3205 51.0625 32.9078 51.072C32.579 51.0808 32.3821 50.926 32.3763 50.6108C32.3602 49.7233 32.3602 48.8358 32.3763 47.9483C32.3807 47.668 32.571 47.4936 32.8502 47.4892C33.7368 47.4753 34.6234 47.4782 35.51 47.4782C35.6821 47.4782 35.7856 47.5651 35.7754 47.7505C35.7652 47.9359 35.6413 47.9935 35.4772 47.9942C34.9916 47.9942 34.5053 47.9942 34.019 48.0001C33.5939 48.0045 33.3628 48.3986 33.5618 48.7744C33.6202 48.8861 33.7171 48.8766 33.8126 48.8759C34.3092 48.8759 34.8064 48.8686 35.303 48.8671C35.5217 48.8671 35.7346 48.8781 35.7258 49.1817C35.7171 49.4853 35.4874 49.4386 35.3 49.4415C34.8268 49.4474 34.3522 49.4496 33.879 49.4415C33.6282 49.4372 33.5421 49.5452 33.5334 49.7904C33.5057 50.583 33.5028 50.5932 34.288 50.5881C34.6769 50.5881 35.0658 50.5818 35.4546 50.5692C35.6347 50.564 35.7732 50.6027 35.7776 50.8166C35.782 51.0304 35.6369 51.0735 35.4605 51.0691H34.148L34.1473 51.072Z" fill="white"/>
<path d="M14.5068 51.2289C13.7048 51.2289 13.0945 51.0925 12.6352 50.5954C12.4043 50.3511 12.2421 50.0499 12.165 49.7225C12.088 49.3951 12.0988 49.0532 12.1964 48.7313C12.2939 48.4095 12.4748 48.1192 12.7206 47.8899C12.9665 47.6606 13.2685 47.5004 13.5961 47.4257C14.5629 47.19 15.486 47.2797 16.1903 48.1103C16.2526 48.1841 16.3082 48.2632 16.3566 48.3468C16.4572 48.5212 16.4061 48.6307 16.2005 48.6387C15.7864 48.6482 15.3912 48.7212 15.0996 48.2395C14.7605 47.679 13.9818 47.7206 13.5837 48.2475C13.3692 48.5437 13.253 48.8999 13.2515 49.2658C13.2501 49.6317 13.3635 49.9888 13.5757 50.2867C14.0008 50.8662 14.7423 50.9042 15.1295 50.2977C15.4051 49.8656 15.7587 49.8729 16.1619 49.8904C16.4222 49.9014 16.4849 50.0094 16.3405 50.2378C15.879 50.9684 15.1929 51.245 14.5068 51.2289Z" fill="white"/>
<path d="M49.2975 50.402C49.1401 50.4112 48.9823 50.4112 48.825 50.402C48.4772 50.3612 48.2512 50.475 48.1279 50.8246C48.047 51.0545 47.5833 51.1895 47.3799 51.0516C47.1765 50.9137 47.366 50.7633 47.4258 50.6502C47.915 49.7284 48.4313 48.8205 48.9117 47.895C49.0875 47.5571 49.3361 47.4571 49.681 47.4834C49.9296 47.5002 50.1184 47.5907 50.238 47.8257C50.7163 48.7934 51.1953 49.7612 51.6839 50.7239C51.8297 51.0049 51.7487 51.0976 51.452 51.0786C51.2704 51.0677 51.0874 51.0728 50.9059 51.0786C50.7477 51.0786 50.6106 51.0428 50.5559 50.8794C50.4137 50.4553 50.1024 50.3546 49.6977 50.4035C49.5644 50.4107 49.4307 50.4102 49.2975 50.402ZM49.3281 49.8722C50.0572 49.8678 50.0776 49.9451 49.7218 49.2547C49.7174 49.2437 49.7123 49.2329 49.7065 49.2226C49.5811 49.0365 49.565 48.6883 49.3419 48.6803C49.0773 48.6708 49.0503 49.0226 48.946 49.227C48.5567 49.9992 48.6237 49.8612 49.331 49.8722H49.3281Z" fill="white"/>
<path d="M21.058 49.2708C21.058 49.7211 21.0492 50.1707 21.058 50.6202C21.0667 50.9363 20.9647 51.0954 20.6205 51.0757C19.9826 51.0406 19.7791 51.264 19.8571 50.2831C19.922 49.4751 19.8673 48.657 19.8484 47.8439C19.8426 47.5687 19.9585 47.4841 20.213 47.4731C21.0573 47.4366 21.0573 47.4308 21.0565 48.2855C21.0575 48.6139 21.058 48.9423 21.058 49.2708Z" fill="white"/>
<path opacity="0.1" d="M29.8498 0.5H34.1502C41.608 0.5 46.3809 1.69161 50.5119 3.90091C54.6463 6.112 57.888 9.3537 60.0991 13.4881C62.3084 17.6191 63.5 22.392 63.5 29.8498V34.1502C63.5 41.608 62.3084 46.3809 60.0991 50.5119C57.888 54.6463 54.6463 57.888 50.5119 60.0991C46.3809 62.3084 41.608 63.5 34.1502 63.5H29.8498C22.392 63.5 17.6191 62.3084 13.4881 60.0991C9.3537 57.888 6.112 54.6463 3.90091 50.5119C1.69161 46.3809 0.5 41.608 0.5 34.1502V29.8498C0.5 22.392 1.69161 17.6191 3.90091 13.4881C6.112 9.3537 9.3537 6.112 13.4881 3.90091C17.6191 1.69161 22.392 0.5 29.8498 0.5Z" stroke="#EFEFEF"/>
</svg>
