<svg width="64" height="64" viewBox="0 0 64 64" fill="none" xmlns="http://www.w3.org/2000/svg">
<path fill-rule="evenodd" clip-rule="evenodd" d="M29.8498 0L34.1502 0C41.6672 0 46.5262 1.20231 50.7477 3.46C54.9692 5.7177 58.2823 9.03077 60.54 13.2523C62.7977 17.4738 64 22.3328 64 29.8498V34.1502C64 41.6672 62.7977 46.5262 60.54 50.7477C58.2823 54.9692 54.9692 58.2823 50.7477 60.54C46.5262 62.7977 41.6672 64 34.1502 64H29.8498C22.3328 64 17.4738 62.7977 13.2523 60.54C9.03077 58.2823 5.7177 54.9692 3.46 50.7477C1.20231 46.5262 0 41.6672 0 34.1502L0 29.8498C0 22.3328 1.20231 17.4738 3.46 13.2523C5.7177 9.03077 9.03077 5.7177 13.2523 3.46C17.4738 1.20231 22.3328 0 29.8498 0Z" fill="#3C2A78"/>
<path opacity="0.1" d="M29.8498 0.5H34.1502C41.608 0.5 46.3809 1.69161 50.5119 3.90091C54.6463 6.112 57.888 9.3537 60.0991 13.4881C62.3084 17.6191 63.5 22.392 63.5 29.8498V34.1502C63.5 41.608 62.3084 46.3809 60.0991 50.5119C57.888 54.6463 54.6463 57.888 50.5119 60.0991C46.3809 62.3084 41.608 63.5 34.1502 63.5H29.8498C22.392 63.5 17.6191 62.3084 13.4881 60.0991C9.3537 57.888 6.112 54.6463 3.90091 50.5119C1.69161 46.3809 0.5 41.608 0.5 34.1502V29.8498C0.5 22.392 1.69161 17.6191 3.90091 13.4881C6.112 9.3537 9.3537 6.112 13.4881 3.90091C17.6191 1.69161 22.392 0.5 29.8498 0.5Z" stroke="#EFEFEF"/>
<g clip-path="url(#clip0_2012_4988)">
<path d="M12 17V31.3801H21.3458V17H12ZM19.6012 27.6667C19.6012 27.7165 19.5514 27.7664 19.5016 27.7664H18.1558C18.1059 27.7664 18.0561 27.7165 18.0561 27.6667V23.5047L17.1589 26.1215C17.134 26.1713 17.109 26.1963 17.0592 26.1963H16.2368C16.1869 26.1963 16.162 26.1713 16.1371 26.1215L15.2399 23.5047V27.6667C15.2399 27.7165 15.19 27.7664 15.1402 27.7664H13.8193C13.7695 27.7664 13.7196 27.7165 13.7196 27.6667V20.7383C13.7196 20.6885 13.7695 20.6386 13.8193 20.6386H15.2648C15.3146 20.6386 15.3396 20.6636 15.3645 20.7134L16.6854 24.3271L17.9813 20.7134C18.0062 20.6636 18.0312 20.6386 18.081 20.6386H19.5265C19.5763 20.6386 19.6262 20.6885 19.6262 20.7383V27.6667H19.6012Z" fill="white"/>
<path d="M42.6543 17V31.3801H52.0001V17H42.6543ZM49.6574 27.6667C49.6574 27.7165 49.6076 27.7664 49.5577 27.7664H48.187C48.1372 27.7664 48.0873 27.7165 48.0873 27.6667V26.3458H46.5172V27.6667C46.5172 27.7165 46.4674 27.7664 46.4175 27.7664H45.0468C44.997 27.7664 44.9471 27.7165 44.9471 27.6667V25.648V25.6231L46.2431 20.7383C46.2431 20.6885 46.2929 20.6636 46.3428 20.6636H48.2618C48.3116 20.6636 48.3365 20.6885 48.3615 20.7383L49.6574 25.6231V25.648V27.6667Z" fill="white"/>
<path d="M46.667 24.9751H47.9629L47.315 21.9097L46.667 24.9751Z" fill="white"/>
<path d="M17.1337 40.1028H15.9873V41.648H17.1337C17.2583 41.648 17.358 41.5483 17.358 41.4237V40.3271C17.358 40.2025 17.2583 40.1028 17.1337 40.1028Z" fill="white"/>
<path d="M12 32.2523V46.6324H21.3458V32.2523H12ZM18.9034 41.5981C18.9034 42.3707 18.2804 42.9938 17.5078 42.9938H14.5421C14.4922 42.9938 14.4424 42.9439 14.4424 42.8941V35.9907C14.4424 35.9408 14.4922 35.891 14.5421 35.891H17.3583C18.1308 35.891 18.7539 36.514 18.7539 37.2866V38.6075C18.7539 38.6822 18.729 38.7321 18.6791 38.7819L17.9564 39.3302L18.8287 40.028C18.8785 40.0779 18.9034 40.1277 18.9034 40.2025V41.5981Z" fill="white"/>
<path d="M17.2085 38.5078V37.486C17.2085 37.3614 17.1088 37.2617 16.9842 37.2617H15.9873V38.7321H16.9842C17.1088 38.7321 17.2085 38.6324 17.2085 38.5078Z" fill="white"/>
<path d="M27.5016 37.2118H26.2305C26.1807 37.2118 26.1309 37.2617 26.1309 37.3115V41.5981C26.1309 41.648 26.1807 41.6978 26.2305 41.6978H27.5016C27.5514 41.6978 27.6013 41.648 27.6013 41.5981V37.3115C27.6013 37.2617 27.5514 37.2118 27.5016 37.2118Z" fill="white"/>
<path d="M22.2183 32.2523V46.6324H31.5641V32.2523H22.2183ZM29.1466 37.2368V41.6729C29.1466 42.4455 28.5236 43.0935 27.726 43.0935H26.0064C25.2338 43.0935 24.5859 42.4704 24.5859 41.6729V37.2368C24.5859 36.4642 25.2089 35.8162 26.0064 35.8162H27.726C28.5236 35.8162 29.1466 36.4392 29.1466 37.2368Z" fill="white"/>
<path d="M32.436 32.2523V46.6324H41.7818V32.2523H32.436ZM39.3893 42.919C39.3893 42.9688 39.3395 43.0187 39.2896 43.0187H37.9438C37.894 43.0187 37.8691 42.9938 37.8441 42.9439L37.0715 40.4268L36.299 42.9439C36.299 42.9938 36.2491 43.0187 36.1993 43.0187H34.8535C34.8036 43.0187 34.7538 42.9688 34.7538 42.919V41.4486C34.7538 41.4237 34.7538 41.4237 34.7787 41.3988L35.9501 39.4548L34.8286 37.4611C34.8286 37.4361 34.8286 37.4361 34.8286 37.4112V35.9907C34.8286 35.9408 34.8784 35.891 34.9282 35.891H36.299C36.3488 35.891 36.3737 35.9159 36.3987 35.9657L37.0715 38.3832L37.7444 35.9657C37.7444 35.9159 37.7943 35.891 37.8441 35.891H39.2148C39.2647 35.891 39.3145 35.9408 39.3145 35.9907V37.4112C39.3145 37.4361 39.3145 37.4361 39.3145 37.4611L38.193 39.4548L39.3644 41.3988C39.3644 41.4237 39.3893 41.4237 39.3893 41.4486V42.919Z" fill="white"/>
<path d="M22.2183 17V31.3801H31.5641V17H22.2183ZM28.8725 27.6417C28.8725 27.6916 28.8226 27.7414 28.7728 27.7414H25.1341C25.0843 27.7414 25.0345 27.6916 25.0345 27.6417V20.7383C25.0345 20.6885 25.0843 20.6386 25.1341 20.6386H28.7479C28.7977 20.6386 28.8475 20.6885 28.8475 20.7383V21.9595C28.8475 22.0093 28.7977 22.0592 28.7479 22.0592H26.6046V23.4548H28.6482C28.698 23.4548 28.7479 23.5047 28.7479 23.5545V24.7259C28.7479 24.7757 28.698 24.8255 28.6482 24.8255H26.6046V26.3458H28.8226C28.8725 26.3458 28.9223 26.3956 28.9223 26.4455V27.6417H28.8725Z" fill="white"/>
<path d="M32.436 17V31.3801H41.7818V17H32.436ZM39.3644 22.8816C39.3644 22.9315 39.3145 22.9813 39.2647 22.9813H37.9189C37.8691 22.9813 37.8192 22.9315 37.8192 22.8816V22.0592C37.8192 22.0093 37.7694 21.9595 37.7195 21.9595H36.4485C36.3987 21.9595 36.3488 22.0093 36.3488 22.0592V26.3458C36.3488 26.3956 36.3987 26.4455 36.4485 26.4455H37.7195C37.7694 26.4455 37.8192 26.3956 37.8192 26.3458V25.1994H37.1463C37.0965 25.1994 37.0466 25.1495 37.0466 25.0997V23.9283C37.0466 23.8785 37.0965 23.8287 37.1463 23.8287H39.2647C39.3145 23.8287 39.3644 23.8785 39.3644 23.9283V27.6667C39.3644 27.7165 39.3145 27.7664 39.2647 27.7664H38.0435C37.9937 27.7664 37.9438 27.7414 37.9438 27.6916L37.894 27.1682L37.3457 27.8411C37.3208 27.866 37.2958 27.866 37.2709 27.866H36.2491C35.4765 27.866 34.8286 27.243 34.8286 26.4455V21.9844C34.8286 21.2118 35.4516 20.5639 36.2491 20.5639H37.9687C38.7413 20.5639 39.3893 21.1869 39.3893 21.9844L39.3644 22.8816Z" fill="white"/>
</g>
<defs>
<clipPath id="clip0_2012_4988">
<rect width="40" height="29.6075" fill="white" transform="translate(12 17)"/>
</clipPath>
</defs>
</svg>
